<svg width="81" height="81" viewBox="0 0 81 81" fill="none" xmlns="http://www.w3.org/2000/svg">
<path d="M3.71441 36.5778C2.17729 35.0468 2.38892 32.5006 4.1577 31.2444L43.6747 3.17916C45.4535 1.91583 47.9421 2.57018 48.8694 4.54508L59.1734 26.4885C59.4038 26.9794 59.7212 27.4245 60.11 27.8025L77.0789 44.298C78.6468 45.8222 78.4487 48.395 76.6659 49.6612L37.1682 77.7127C35.3978 78.9701 32.9216 78.3286 31.9844 76.3697L21.6842 54.8416C21.4628 54.3789 21.1639 53.9574 20.8005 53.5954L3.71441 36.5778Z" stroke="white"/>
<path d="M42.0338 59.8779C39.6258 59.8779 37.3898 59.5196 35.3258 58.8029C33.2618 58.0862 31.3985 57.1402 29.7358 55.9649C28.1018 54.7609 26.6685 53.4709 25.4358 52.0949L29.7358 45.2579C30.1085 46.2325 30.7248 47.1642 31.5848 48.0529C32.4735 48.9415 33.9785 47.3649 35.1538 48.0529C36.3291 48.7409 37.0888 51.6506 38.3788 52.0519C39.6975 52.4532 40.9875 52.6539 42.2488 52.6539C44.1408 52.6539 42.5549 51.0199 43.6729 50.4179C44.7909 49.7872 48.4408 50.2889 48.4408 49.2569C48.4408 48.4542 48.1828 47.7949 47.6668 47.2789C47.1795 46.7342 46.6061 46.3042 45.9468 45.9889C45.3161 45.6449 44.7715 45.3439 44.3128 45.0859C43.9688 44.9139 43.3381 44.6559 42.4208 44.3119C41.5321 43.9392 40.5288 43.5379 39.4108 43.1079C38.2928 42.6779 37.2321 42.2765 36.2288 41.9039C35.2255 41.5025 34.4371 41.1729 33.8638 40.9149C29.5925 38.9942 27.4568 36.0272 27.4568 32.0139C27.4568 30.7239 27.7005 29.4625 28.1878 28.2299C28.7038 26.9685 29.4778 25.8219 30.5098 24.7899C31.5418 23.7579 32.8605 22.9409 34.4658 22.3389C36.0711 21.7369 37.9918 21.4359 40.2278 21.4359C42.6645 21.4359 44.8288 21.7082 46.7208 22.2529C48.6128 22.7689 50.2755 23.4282 51.7088 24.2309C53.1708 25.0335 54.4178 25.8792 55.4498 26.7679L51.4938 33.3899C48.3118 30.2365 46.6061 32.4378 42.5928 32.4378C40.9015 32.4378 37.7195 28.8462 36.8308 29.2189C35.9708 29.5629 35.3831 29.9642 35.0678 30.4229C34.7811 30.8529 34.6378 31.2112 34.6378 31.4979C34.6378 31.9852 34.8098 32.4725 35.1538 32.9599C35.5265 33.4472 36.3435 33.9632 37.6048 34.5079C38.1208 34.7372 38.8088 35.0239 39.6688 35.3679C40.5575 35.6832 41.5321 36.0415 42.5928 36.4429C43.6821 36.8442 48.6409 35.4792 49.6729 35.9378C50.7335 36.3678 47.7958 38.6072 48.6558 39.0659C49.6878 39.6392 50.7485 40.3415 51.8378 41.1729C52.9271 42.0042 53.8445 43.0362 54.5898 44.2689C55.3638 45.4729 55.7508 46.9492 55.7508 48.6979C55.7508 49.7586 55.5501 50.9339 55.1488 52.2239C54.7475 53.4852 54.0451 54.7035 53.0418 55.8789C52.0385 57.0542 50.6481 58.0145 48.8708 58.7599C47.0935 59.5052 44.8145 59.8779 42.0338 59.8779Z" fill="#31E981" fill-opacity="0.85"/>
</svg>
